<?xml version="1.0" encoding="UTF-8" standalone="no"?>
<!-- Created with Inkscape (http://www.inkscape.org/) -->

<svg
   xmlns:osb="http://www.openswatchbook.org/uri/2009/osb"
   xmlns:dc="http://purl.org/dc/elements/1.1/"
   xmlns:cc="http://creativecommons.org/ns#"
   xmlns:rdf="http://www.w3.org/1999/02/22-rdf-syntax-ns#"
   xmlns:svg="http://www.w3.org/2000/svg"
   xmlns="http://www.w3.org/2000/svg"
   xmlns:xlink="http://www.w3.org/1999/xlink"
   xmlns:sodipodi="http://sodipodi.sourceforge.net/DTD/sodipodi-0.dtd"
   xmlns:inkscape="http://www.inkscape.org/namespaces/inkscape"
   width="210mm"
   height="297mm"
   id="svg2"
   version="1.1"
   inkscape:version="0.48.3.1 r9886"
   sodipodi:docname="bola_preto_branco2.svg">
  <defs
     id="defs4">
    <linearGradient
       id="linearGradient5229"
       osb:paint="solid">
      <stop
         style="stop-color:#000000;stop-opacity:1;"
         offset="0"
         id="stop5231" />
    </linearGradient>
    <linearGradient
       inkscape:collect="always"
       xlink:href="#linearGradient5229"
       id="linearGradient5233"
       x1="96.474648"
       y1="130.09291"
       x2="242.93661"
       y2="130.09291"
       gradientUnits="userSpaceOnUse" />
  </defs>
  <sodipodi:namedview
     id="base"
     pagecolor="#ffffff"
     bordercolor="#666666"
     borderopacity="1.0"
     inkscape:pageopacity="0.0"
     inkscape:pageshadow="2"
     inkscape:zoom="0.24748737"
     inkscape:cx="437.30728"
     inkscape:cy="734.90854"
     inkscape:document-units="px"
     inkscape:current-layer="layer1"
     showgrid="false"
     inkscape:window-width="1600"
     inkscape:window-height="813"
     inkscape:window-x="0"
     inkscape:window-y="27"
     inkscape:window-maximized="1"
     inkscape:snap-grids="false" />
  <metadata
     id="metadata7">
    <rdf:RDF>
      <cc:Work
         rdf:about="">
        <dc:format>image/svg+xml</dc:format>
        <dc:type
           rdf:resource="http://purl.org/dc/dcmitype/StillImage" />
        <dc:title></dc:title>
      </cc:Work>
    </rdf:RDF>
  </metadata>
  <g
     inkscape:label="Camada 1"
     inkscape:groupmode="layer"
     id="layer1">
    <path
       sodipodi:type="arc"
       style="fill:#ffffff;fill-opacity:1;stroke:#000000;stroke-opacity:1"
       id="path5787"
       sodipodi:cx="385.87827"
       sodipodi:cy="559.40771"
       sodipodi:rx="220.21326"
       sodipodi:ry="220.21326"
       d="m 606.09152,559.40771 a 220.21326,220.21326 0 1 1 -440.42651,0 220.21326,220.21326 0 1 1 440.42651,0 z"
       transform="translate(-24.243661,-32.324881)" />
    <path
       style="fill:none;stroke:#000000;stroke-width:1px;stroke-linecap:butt;stroke-linejoin:miter;stroke-opacity:1"
       d="m 362.64476,306.8696 c 0,439.41636 0,440.42651 0,440.42651"
       id="path5826"
       inkscape:connector-curvature="0" />
    <path
       style="fill:none;stroke:#000000;stroke-width:1px;stroke-linecap:butt;stroke-linejoin:miter;stroke-opacity:1"
       d="m 141.42136,523.04225 c 439.41635,0 440.42651,0 440.42651,0"
       id="path5828"
       inkscape:connector-curvature="0" />
    <path
       style="fill:none;stroke:#000000;stroke-width:1px;stroke-linecap:butt;stroke-linejoin:miter;stroke-opacity:1"
       d="m 181.42857,400.21932 c 181.42857,0 181.07143,0 181.07143,0 l 178.92857,0"
       id="path6062"
       inkscape:connector-curvature="0" />
    <path
       style="fill:none;stroke:#000000;stroke-width:1px;stroke-linecap:butt;stroke-linejoin:miter;stroke-opacity:1"
       d="m 541.07143,399.86218 0,123.21429"
       id="path6064"
       inkscape:connector-curvature="0" />
    <path
       style="fill:none;stroke:#000000;stroke-width:1px;stroke-linecap:butt;stroke-linejoin:miter;stroke-opacity:1"
       d="m 181.82746,400.05618 0,122.98607"
       id="path6068"
       inkscape:connector-curvature="0" />
    <path
       style="fill:none;stroke:#000000;stroke-width:1px;stroke-linecap:butt;stroke-linejoin:miter;stroke-opacity:1"
       d="m 181.82746,522.78971 0,131.57237"
       id="path6070"
       inkscape:connector-curvature="0" />
    <path
       style="fill:none;stroke:#000000;stroke-width:1px;stroke-linecap:butt;stroke-linejoin:miter;stroke-opacity:1"
       d="m 540.93669,522.78971 0,131.57237"
       id="path6072"
       inkscape:connector-curvature="0" />
    <path
       style="fill:none;stroke:#000000;stroke-width:1px;stroke-linecap:butt;stroke-linejoin:miter;stroke-opacity:1"
       d="m 181.78571,653.43361 180.71429,0"
       id="path6074"
       inkscape:connector-curvature="0" />
    <path
       style="fill:none;stroke:#000000;stroke-width:1px;stroke-linecap:butt;stroke-linejoin:miter;stroke-opacity:1"
       d="m 362.14286,653.43361 178.57143,0"
       id="path6078"
       inkscape:connector-curvature="0" />
    <path
       style="fill:none;stroke:#000000;stroke-width:1px;stroke-linecap:butt;stroke-linejoin:miter;stroke-opacity:1"
       d="m 270.72088,326.56758 0,196.47467"
       id="path6080"
       inkscape:connector-curvature="0" />
    <path
       style="fill:none;stroke:#000000;stroke-width:1px;stroke-linecap:butt;stroke-linejoin:miter;stroke-opacity:1"
       d="m 270.35714,326.6479 181.78572,0 0,73.21428 0.35714,0 0,0"
       id="path6082"
       inkscape:connector-curvature="0" />
    <path
       style="fill:none;stroke:#000000;stroke-width:1px;stroke-linecap:butt;stroke-linejoin:miter;stroke-opacity:1"
       d="m 452.14286,400.21932 0,122.5 0,130.71429"
       id="path6084"
       inkscape:connector-curvature="0" />
    <path
       style="fill:none;stroke:#000000;stroke-width:1px;stroke-linecap:butt;stroke-linejoin:miter;stroke-opacity:1"
       d="m 452.14286,653.07647 0,74.64285 -181.42857,0 0,-205"
       id="path6098"
       inkscape:connector-curvature="0" />
    <path
       style="fill:#000000;fill-opacity:1;stroke:#000000;stroke-width:1.42857146;stroke-opacity:1"
       d="m 182.55197,461.53144 0,-60 43.57143,0 43.57143,0 0,60 0,60 -43.57143,0 -43.57143,0 0,-60 z"
       id="path6303"
       inkscape:connector-curvature="0" />
    <path
       style="fill:#000000;fill-opacity:1;stroke:#000000;stroke-width:1.42857146;stroke-opacity:1"
       d="m 272.55197,587.96001 0,-63.57143 44.28572,0 44.28571,0 0,63.57143 0,63.57143 -44.28571,0 -44.28572,0 0,-63.57143 z"
       id="path6305"
       inkscape:connector-curvature="0" />
    <path
       style="fill:#000000;fill-opacity:1;stroke:#000000;stroke-width:1.42857146;stroke-opacity:1"
       d="m 363.98054,690.10287 0,-35.71428 43.57143,0 43.57143,0 0,35.71428 0,35.71429 -43.57143,0 -43.57143,0 0,-35.71429 z"
       id="path6307"
       inkscape:connector-curvature="0" />
    <path
       style="fill:#000000;fill-opacity:1;stroke:#000000;stroke-width:1.42857146;stroke-opacity:1"
       d="m 363.98054,461.53144 0,-60 43.57143,0 43.57143,0 0,60 0,60 -43.57143,0 -43.57143,0 0,-60 z"
       id="path6309"
       inkscape:connector-curvature="0" />
    <path
       style="fill:#000000;fill-opacity:1;stroke:#000000;stroke-width:1.42857146;stroke-opacity:1"
       d="m 272.55197,362.96001 0,-35.71428 44.28572,0 44.28571,0 0,35.71428 0,35.71429 -44.28571,0 -44.28572,0 0,-35.71429 z"
       id="path6311"
       inkscape:connector-curvature="0" />
    <path
       style="fill:#000000;fill-opacity:1;stroke:#000000;stroke-width:1.42857146;stroke-opacity:1"
       d="m 453.98054,587.96001 0,-63.57143 42.85715,0 42.85714,0 0,63.57143 0,63.57143 -42.85714,0 -42.85715,0 0,-63.57143 z"
       id="path6313"
       inkscape:connector-curvature="0" />
    <path
       style="fill:#000000;fill-opacity:1;stroke:#000000;stroke-width:1.42857146;stroke-opacity:1"
       d="m 330.09,743.58895 c -13.2723,-1.93521 -38.27236,-8.57136 -47.53803,-12.61874 -4.63661,-2.02534 -1.96311,-2.18814 36.78572,-2.23999 l 41.78571,-0.0559 0,8.57143 0,8.57143 -8.92857,-0.1535 c -4.91071,-0.0844 -14.85789,-1.01804 -22.10483,-2.07471 z"
       id="path6315"
       inkscape:connector-curvature="0" />
    <path
       style="fill:#000000;fill-opacity:1;stroke:#000000;stroke-width:1.42857146;stroke-opacity:1"
       d="m 256.06345,718.51655 c -25.97196,-14.81663 -49.88169,-35.05881 -65.71392,-55.63397 l -6.53598,-8.49399 42.94064,0 42.94064,0 0,35.71428 c 0,19.64286 -0.18769,35.71429 -0.41709,35.71429 -0.2294,0 -6.17583,-3.28528 -13.21429,-7.30061 z"
       id="path6317"
       inkscape:connector-curvature="0" />
    <path
       style="fill:#000000;fill-opacity:1;stroke:#000000;stroke-width:1.42857146;stroke-opacity:1"
       d="m 174.63451,640.5051 c -12.67076,-21.509 -22.68677,-46.698 -26.99725,-67.89467 -2.39611,-11.78284 -5.01959,-34.00474 -5.06053,-42.8647 l -0.0248,-5.35715 19.28572,0 19.28571,0 0,62.85715 c 0,34.57143 -0.18786,62.85714 -0.41746,62.85714 -0.2296,0 -2.96175,-4.319 -6.07143,-9.59777 z"
       id="path6319"
       inkscape:connector-curvature="0" />
    <path
       style="fill:#000000;fill-opacity:1;stroke:#000000;stroke-width:1.42857146;stroke-opacity:1"
       d="m 542.55565,462.60287 0.004,-58.92857 5.11745,8.4869 c 18.47871,30.64551 29.69321,64.74311 31.62515,96.15596 l 0.81269,13.21428 -18.78132,0 -18.78132,0 0.004,-58.92857 z"
       id="path6321"
       inkscape:connector-curvature="0" />
    <path
       style="fill:#000000;fill-opacity:1;stroke:#000000;stroke-width:1.42857146;stroke-opacity:1"
       d="m 453.98054,363.65023 0,-35.02406 7.5,3.78351 c 25.56651,12.89747 58.93309,40.79966 73.68985,61.62176 l 3.29042,4.64286 -42.24013,0 -42.24014,0 0,-35.02407 z"
       id="path6323"
       inkscape:connector-curvature="0" />
    <path
       style="fill:#000000;fill-opacity:1;stroke:#000000;stroke-width:2.02030516;stroke-opacity:1"
       d="m 363.98114,317.12883 0,-8.38374 17.67767,1.26703 c 17.52504,1.2561 43.59319,7.04707 55.78838,12.39325 5.66319,2.48265 2.09898,2.7951 -33.56502,2.94241 l -39.90103,0.1648 0,-8.38375 z"
       id="path6352"
       inkscape:connector-curvature="0" />
    <path
       style="fill:#000000;fill-opacity:1;stroke:#000000;stroke-width:0.35714287;stroke-opacity:1"
       d="m 439.31442,325.42347 c 1.28442,-0.37162 1.76913,-1.36902 1.19063,-2.44997 -0.21422,-0.40027 -0.31727,-0.72777 -0.22899,-0.72777 0.34767,0 6.70499,2.50691 7.63048,3.00896 0.90916,0.49319 0.57597,0.5325 -4.37299,0.51596 -3.87863,-0.013 -5.04306,-0.10879 -4.21913,-0.34718 z"
       id="path6354"
       inkscape:connector-curvature="0" />
    <path
       style="fill:#000000;fill-opacity:1;stroke:#000000;stroke-width:0.35714287;stroke-opacity:1"
       d=""
       id="path6358"
       inkscape:connector-curvature="0" />
    <path
       style="fill:#000000;fill-opacity:1;stroke:#000000;stroke-width:0.12626907;stroke-opacity:1"
       d="m 439.36617,322.16723 c -1.12168,-0.73018 -6.21329,-2.68846 -10.48704,-4.03341 -11.69616,-3.68076 -28.56809,-7.20035 -41.53582,-8.66463 -2.58039,-0.29137 -7.65634,-0.68972 -16.98319,-1.33283 -3.68074,-0.25379 -6.8059,-0.50961 -6.9448,-0.56847 -0.56609,-0.23992 5.90609,-0.0679 12.12183,0.32226 20.25704,1.27137 39.98165,5.26892 59.03079,11.96365 2.0072,0.70542 5.43745,1.97171 5.51927,2.03746 0.0596,0.0479 -0.12518,0.57797 -0.19912,0.5711 -0.044,-0.004 -0.27885,-0.13689 -0.52192,-0.29513 z"
       id="path6360"
       inkscape:connector-curvature="0" />
    <path
       style="fill:#000000;fill-opacity:1;stroke:#000000;stroke-width:0.12626907;stroke-opacity:1"
       d="m 426.88905,326.19225 c 0.0834,-0.0834 23.61179,-0.0798 23.69519,0.004 0.0341,0.0341 -5.29816,0.062 -11.84942,0.062 -6.55126,0 -11.88186,-0.0295 -11.84577,-0.0656 z"
       id="path6362"
       inkscape:connector-curvature="0" />
    <path
       style="fill:#000000;fill-opacity:1;stroke:#000000;stroke-width:0.12626907;stroke-opacity:1"
       d="m 448.17344,325.91621 c 0.15625,-0.0301 0.28497,-0.0934 0.28604,-0.14064 0.001,-0.0473 0.0478,-0.15819 0.10385,-0.24651 0.0791,-0.12468 0.25511,-0.091 0.78725,0.15057 l 0.68533,0.31114 -1.07329,-0.01 c -0.59031,-0.005 -0.94544,-0.0345 -0.78918,-0.0646 z"
       id="path6364"
       inkscape:connector-curvature="0" />
    <path
       style="fill:#000000;fill-opacity:1;stroke:#000000;stroke-width:0.04464286;stroke-opacity:1"
       d="m 431.55935,326.04124 c 0.0859,-0.006 0.69866,-0.034 1.36161,-0.0618 2.24752,-0.0942 4.53422,-0.28973 5.44643,-0.46578 0.46311,-0.0894 0.44222,-0.0927 0.5048,0.0804 0.0718,0.19871 0.2286,0.24256 1.06579,0.29819 0.97041,0.0645 6.32542,0.1037 7.24637,0.0531 0.62559,-0.0344 0.79459,-0.0314 0.84822,0.0151 0.0368,0.0319 0.14732,0.066 0.24553,0.0758 0.0982,0.01 -3.65848,0.0174 -8.34821,0.017 -4.68973,-3.7e-4 -8.45648,-0.006 -8.37054,-0.0119 z"
       id="path6366"
       inkscape:connector-curvature="0" />
  </g>
</svg>
