<?xml version="1.0" encoding="UTF-8" standalone="no"?>
<!-- Created with Inkscape (http://www.inkscape.org/) -->

<svg
   xmlns:osb="http://www.openswatchbook.org/uri/2009/osb"
   xmlns:dc="http://purl.org/dc/elements/1.1/"
   xmlns:cc="http://creativecommons.org/ns#"
   xmlns:rdf="http://www.w3.org/1999/02/22-rdf-syntax-ns#"
   xmlns:svg="http://www.w3.org/2000/svg"
   xmlns="http://www.w3.org/2000/svg"
   xmlns:xlink="http://www.w3.org/1999/xlink"
   xmlns:sodipodi="http://sodipodi.sourceforge.net/DTD/sodipodi-0.dtd"
   xmlns:inkscape="http://www.inkscape.org/namespaces/inkscape"
   width="441.42651"
   height="441.42651"
   id="svg2"
   version="1.1"
   inkscape:version="0.48.3.1 r9886"
   sodipodi:docname="jogador2.svg">
  <defs
     id="defs4">
    <linearGradient
       id="linearGradient5229"
       osb:paint="solid">
      <stop
         style="stop-color:#000000;stop-opacity:1;"
         offset="0"
         id="stop5231" />
    </linearGradient>
    <linearGradient
       inkscape:collect="always"
       xlink:href="#linearGradient5229"
       id="linearGradient5233"
       x1="96.474648"
       y1="130.09291"
       x2="242.93661"
       y2="130.09291"
       gradientUnits="userSpaceOnUse" />
  </defs>
  <sodipodi:namedview
     id="base"
     pagecolor="#ffffff"
     bordercolor="#666666"
     borderopacity="1.0"
     inkscape:pageopacity="0.0"
     inkscape:pageshadow="2"
     inkscape:zoom="0.69999999"
     inkscape:cx="122.43556"
     inkscape:cy="207.63339"
     inkscape:document-units="px"
     inkscape:current-layer="layer1"
     showgrid="false"
     inkscape:window-width="1600"
     inkscape:window-height="813"
     inkscape:window-x="0"
     inkscape:window-y="27"
     inkscape:window-maximized="1"
     inkscape:snap-grids="false"
     fit-margin-top="0"
     fit-margin-left="0"
     fit-margin-right="0"
     fit-margin-bottom="0" />
  <metadata
     id="metadata7">
    <rdf:RDF>
      <cc:Work
         rdf:about="">
        <dc:format>image/svg+xml</dc:format>
        <dc:type
           rdf:resource="http://purl.org/dc/dcmitype/StillImage" />
        <dc:title></dc:title>
      </cc:Work>
    </rdf:RDF>
  </metadata>
  <g
     inkscape:label="Camada 1"
     inkscape:groupmode="layer"
     id="layer1"
     transform="translate(-140.92135,-306.36958)">
    <path
       sodipodi:type="arc"
       style="fill:#ffffff;fill-opacity:1;stroke:#000000;stroke-opacity:1"
       id="path5787"
       sodipodi:cx="385.87827"
       sodipodi:cy="559.40771"
       sodipodi:rx="220.21326"
       sodipodi:ry="220.21326"
       d="m 606.09152,559.40771 c 0,121.62043 -98.59283,220.21326 -220.21325,220.21326 -121.62043,0 -220.21326,-98.59283 -220.21326,-220.21326 0,-121.62042 98.59283,-220.21325 220.21326,-220.21325 121.62042,0 220.21325,98.59283 220.21325,220.21325 z"
       transform="translate(-24.243661,-32.324881)" />
    <path
       style="fill:none;stroke:#000000;stroke-width:1px;stroke-linecap:butt;stroke-linejoin:miter;stroke-opacity:1"
       d="m 181.42857,400.21932 c 181.42857,0 181.07143,0 181.07143,0 l 178.92857,0"
       id="path6062"
       inkscape:connector-curvature="0" />
    <path
       style="fill:none;stroke:#000000;stroke-width:1px;stroke-linecap:butt;stroke-linejoin:miter;stroke-opacity:1"
       d="m 452.14286,400.21932 0,122.5 0,130.71429"
       id="path6084"
       inkscape:connector-curvature="0" />
    <path
       style="fill:none;stroke:#000000;stroke-width:1px;stroke-linecap:butt;stroke-linejoin:miter;stroke-opacity:1"
       d="m 270.72089,522.15836 0,11.49048"
       id="path7174"
       inkscape:connector-curvature="0" />
    <path
       style="fill:none;stroke:#000000;stroke-width:1px;stroke-linecap:butt;stroke-linejoin:miter;stroke-opacity:1"
       d="m 270.72089,532.89123 0,57.32616"
       id="path7176"
       inkscape:connector-curvature="0" />
    <path
       style="fill:none;stroke:#000000;stroke-width:1px;stroke-linecap:butt;stroke-linejoin:miter;stroke-opacity:1"
       d="m 270.72089,589.83858 0,26.1377"
       id="path7182"
       inkscape:connector-curvature="0" />
    <path
       style="fill:none;stroke:#000000;stroke-width:1px;stroke-linecap:butt;stroke-linejoin:miter;stroke-opacity:1"
       d="m 270.72089,615.34493 0,53.28555"
       id="path7184"
       inkscape:connector-curvature="0" />
    <path
       style="fill:none;stroke:#000000;stroke-width:1px;stroke-linecap:butt;stroke-linejoin:miter;stroke-opacity:1"
       d="m 270.72089,668.1254 0,59.47273"
       id="path7188"
       inkscape:connector-curvature="0" />
    <path
       style="fill:none;stroke:#000000;stroke-width:1px;stroke-linecap:butt;stroke-linejoin:miter;stroke-opacity:1"
       d="m 452.04327,652.97311 0,74.75129"
       id="path7194"
       inkscape:connector-curvature="0" />
    <path
       style="fill:none;stroke:#000000;stroke-width:1px;stroke-linecap:butt;stroke-linejoin:miter;stroke-opacity:1"
       d="m 270.72089,522.91597 0,-122.8598"
       id="path7220"
       inkscape:connector-curvature="0" />
    <path
       style="fill:none;stroke:#000000;stroke-width:1px;stroke-linecap:butt;stroke-linejoin:miter;stroke-opacity:1"
       d="m 270.71429,400.21931 0,-73.92857"
       id="path7268"
       inkscape:connector-curvature="0" />
    <path
       style="fill:none;stroke:#000000;stroke-width:1px;stroke-linecap:butt;stroke-linejoin:miter;stroke-opacity:1"
       d="m 452.14286,400.04074 0,-39.46428"
       id="path7276"
       inkscape:connector-curvature="0" />
    <path
       style="fill:none;stroke:#000000;stroke-width:1px;stroke-linecap:butt;stroke-linejoin:miter;stroke-opacity:1"
       d="m 452.14286,360.75503 0,-34.46429"
       id="path7282"
       inkscape:connector-curvature="0" />
    <path
       style="fill:#000000;fill-opacity:1;stroke:#000000;stroke-width:1.01015258;stroke-opacity:1"
       d="m 271.93905,363.13155 0,-36.2253 5.80838,-2.26822 c 30.0939,-11.7519 53.24348,-16.30881 83.08505,-16.35498 18.48115,-0.0286 27.77532,0.85884 45.45686,4.34036 10.81735,2.12995 29.69007,7.90311 39.17665,11.98412 l 5.27007,2.26712 0,36.2411 0,36.2411 -89.39851,0 -89.3985,0 0,-36.2253 z"
       id="path7288"
       inkscape:connector-curvature="0" />
    <path
       sodipodi:type="arc"
       style="fill:#f4d7d7;fill-opacity:1;stroke:#000000;stroke-opacity:1"
       id="path7315"
       sodipodi:cx="65.65992"
       sodipodi:cy="328.08279"
       sodipodi:rx="63.63961"
       sodipodi:ry="63.63961"
       d="m 129.29953,328.08279 c 0,35.14719 -28.49242,63.63961 -63.63961,63.63961 -35.147187,0 -63.6396106,-28.49242 -63.6396106,-63.63961 0,-35.14718 28.4924236,-63.63961 63.6396106,-63.63961 35.14719,0 63.63961,28.49243 63.63961,63.63961 z"
       transform="matrix(1.7279307,0,0,1.7581845,247.43314,10.655547)" />
    <path
       style="fill:none;stroke:#000000;stroke-width:1px;stroke-linecap:butt;stroke-linejoin:miter;stroke-opacity:1"
       d="m 270.72089,522.7897 180.05969,0"
       id="path7317"
       inkscape:connector-curvature="0" />
    <path
       style="fill:#000000;fill-opacity:1;stroke:#000000;stroke-width:1.01015258;stroke-opacity:1"
       d="m 343.24654,696.4501 c -34.23192,-6.03077 -63.63763,-28.1932 -79.03832,-59.56941 -12.48159,-25.42906 -15.07528,-53.56632 -7.38571,-80.12288 3.02547,-10.44869 5.13699,-15.41373 10.71086,-25.18553 l 4.17741,-7.3236 89.10029,0 89.10029,0 3.63555,6.10301 c 5.35168,8.98391 9.57291,19.14385 12.51704,30.12687 2.28878,8.5382 2.61583,11.77671 2.66611,26.39958 0.048,13.95466 -0.30399,18.09914 -2.1624,25.46331 -4.76299,18.87381 -12.23067,33.55041 -24.38618,47.9274 -13.28739,15.71574 -34.74925,29.0416 -55.16853,34.25462 -12.85613,3.28217 -31.43087,4.09983 -43.76641,1.92663 l 0,0 z"
       id="path7323"
       inkscape:connector-curvature="0" />
    <path
       style="fill:#00ffff;fill-opacity:1;stroke:#000000;stroke-width:1.42857146;stroke-opacity:1"
       d="M 301.72128,204.17056 C 282.27251,182.2898 256.024,169.92497 225.93303,168.46915 c -33.80548,-1.63553 -61.6844,9.21193 -85.28318,33.18298 l -9.64286,9.79497 0,-58.1127 0,-58.112707 89.28572,0 89.28571,0 0,58.571427 c 0,32.21429 -0.16071,58.53589 -0.35714,58.49246 -0.19643,-0.0434 -3.57143,-3.6952 -7.5,-8.11502 z"
       id="path3030"
       inkscape:connector-curvature="0"
       transform="translate(140.92135,306.36958)" />
    <path
       style="fill:#00ffff;fill-opacity:1;stroke:#000000;stroke-width:1.42857146;stroke-opacity:1"
       d="m 190.20448,437.31014 c -13.88129,-2.02695 -32.74603,-6.51026 -40.72179,-9.67775 -2.69735,-1.07123 -7.95784,-3.06931 -11.68998,-4.4402 l -6.78572,-2.49252 0,-34.99302 0,-34.99303 9.64286,9.86219 c 21.97422,22.47404 47.6491,33.31007 79.05066,33.36317 32.09774,0.0543 57.74934,-10.87325 80.25934,-34.19034 l 9.66716,-10.01375 -0.38144,35.7508 -0.38143,35.7508 -9.28572,3.49509 c -35.02969,13.18494 -74.29552,17.70071 -109.37394,12.57856 z"
       id="path3032"
       inkscape:connector-curvature="0"
       transform="translate(140.92135,306.36958)" />
    <path
       style="fill:#999999;fill-opacity:1;stroke:#000000;stroke-width:1.42857146;stroke-opacity:1"
       d="M 50.088429,84.150264 C 67.068976,62.326324 96.12085,38.646458 122.30178,25.289944 l 5.84807,-2.983463 0,35.029034 0,35.029035 -42.226355,0 -42.226354,0 6.391288,-8.214286 z"
       id="path3050"
       inkscape:connector-curvature="0"
       transform="translate(140.92135,306.36958)" />
    <path
       style="fill:#999999;fill-opacity:1;stroke:#000000;stroke-width:1.42857146;stroke-opacity:1"
       d="m 312.43557,57.387663 0,-34.976889 5.35714,2.447066 c 13.52155,6.17645 31.38068,18.233652 48.08114,32.460918 8.48389,7.2275 30.84743,31.818231 30.84743,33.919529 0,0.619445 -18.96428,1.126263 -42.14286,1.126263 l -42.14285,0 0,-34.976887 z"
       id="path3052"
       inkscape:connector-curvature="0"
       transform="translate(140.92135,306.36958)" />
    <path
       style="fill:#999999;fill-opacity:1;stroke:#000000;stroke-width:1.42857146;stroke-opacity:1"
       d="M 115.29271,412.21285 C 68.942151,387.01015 32.404253,343.48865 13.476305,290.93598 6.2807265,270.95775 2.4919428,246.97601 2.4605028,221.20963 2.4078275,178.04002 11.783015,144.22632 34.124217,107.00741 l 7.074549,-11.785717 43.475541,0 43.475543,0 0,60.611897 0,60.6119 -4.91907,8.31667 c -11.17474,18.89314 -16.69931,46.46908 -13.81515,68.95852 2.1241,16.56287 6.19102,29.71696 13.14156,42.50516 l 5.59266,10.28984 0,35.78159 c 0,19.67986 -0.48214,35.77253 -1.07143,35.76147 -0.58929,-0.0114 -5.89286,-2.6417 -11.78571,-5.84589 z"
       id="path3054"
       inkscape:connector-curvature="0"
       transform="translate(140.92135,306.36958)" />
    <path
       style="fill:#999999;fill-opacity:1;stroke:#000000;stroke-width:1.42857146;stroke-opacity:1"
       d="m 312.43557,382.83098 0,-36.72455 6.35185,-12.94236 c 8.27796,-16.86696 10.78228,-26.62915 11.77884,-45.91563 1.21971,-23.60509 -3.36061,-44.41627 -13.78594,-62.63784 l -4.34475,-7.59384 0,-60.89753 0,-60.897537 43.97291,0 43.97292,0 7.39144,12.499997 c 14.23795,24.07844 23.50858,48.4414 28.43939,74.73796 3.85796,20.57491 3.48984,60.07686 -0.74465,79.9049 -10.54823,49.39227 -34.16728,90.48523 -70.37736,122.44413 -11.26207,9.93986 -32.92152,24.79213 -45.15465,30.96336 l -7.5,3.7835 0,-36.72456 z"
       id="path3056"
       inkscape:connector-curvature="0"
       transform="translate(140.92135,306.36958)" />
    <path
       style="fill:#803300;fill-opacity:1;stroke:#000000;stroke-width:1.42857146;stroke-opacity:1"
       d="m 313.86414,58.101795 c 0,-18.084057 0.34704,-32.880103 0.77119,-32.880103 2.1021,0 14.34202,7.139567 27.80024,16.21593 15.81778,10.667679 50.72105,43.762074 49.62516,47.053321 -0.42821,1.286013 -10.54903,1.828421 -39.38644,2.110853 l -38.81015,0.380103 0,-32.880104 z"
       id="path3058"
       inkscape:connector-curvature="0"
       transform="translate(140.92135,306.36958)" />
    <path
       style="fill:#1a1a1a;fill-opacity:1;stroke:#000000;stroke-width:1.42857145999999990;stroke-opacity:1"
       d="M 53.558346,82.717524 C 70.852324,62.75483 91.98146,44.968277 113.55082,32.215726 c 6.50625,-3.846719 12.13125,-6.994034 12.5,-6.994034 0.36875,0 0.67046,14.785715 0.67046,32.857143 l 0,32.857144 -40.141352,0 -40.14135,0 7.119768,-8.218455 0,0 z"
       id="path3060"
       inkscape:connector-curvature="0"
       transform="translate(140.92135,306.36958)" />
    <path
       style="fill:#1a1a1a;fill-opacity:1;stroke:#000000;stroke-width:1.42857146;stroke-opacity:1"
       d="m 315.29271,59.0051 c 0,-17.009446 0.5475,-30.926265 1.21668,-30.926265 2.89159,0 26.95819,15.852196 38.42556,25.310163 15.0167,12.385356 35.56602,32.814908 34.2904,34.090532 -0.50328,0.503277 -17.34401,1.260827 -37.42385,1.683443 l -36.50879,0.768393 0,-30.926266 z"
       id="path3062"
       inkscape:connector-curvature="0"
       transform="translate(140.92135,306.36958)" />
  </g>
</svg>
