<?xml version="1.0" encoding="UTF-8" standalone="no"?>
<!-- Created with Inkscape (http://www.inkscape.org/) -->

<svg
   xmlns:osb="http://www.openswatchbook.org/uri/2009/osb"
   xmlns:dc="http://purl.org/dc/elements/1.1/"
   xmlns:cc="http://creativecommons.org/ns#"
   xmlns:rdf="http://www.w3.org/1999/02/22-rdf-syntax-ns#"
   xmlns:svg="http://www.w3.org/2000/svg"
   xmlns="http://www.w3.org/2000/svg"
   xmlns:xlink="http://www.w3.org/1999/xlink"
   xmlns:sodipodi="http://sodipodi.sourceforge.net/DTD/sodipodi-0.dtd"
   xmlns:inkscape="http://www.inkscape.org/namespaces/inkscape"
   width="220.71327"
   height="220.71327"
   id="svg2"
   version="1.1"
   inkscape:version="0.48.3.1 r9886"
   sodipodi:docname="bola_preto_branco2_small.svg">
  <defs
     id="defs4">
    <linearGradient
       id="linearGradient5229"
       osb:paint="solid">
      <stop
         style="stop-color:#000000;stop-opacity:1;"
         offset="0"
         id="stop5231" />
    </linearGradient>
    <linearGradient
       inkscape:collect="always"
       xlink:href="#linearGradient5229"
       id="linearGradient5233"
       x1="96.474648"
       y1="130.09291"
       x2="242.93661"
       y2="130.09291"
       gradientUnits="userSpaceOnUse" />
  </defs>
  <sodipodi:namedview
     id="base"
     pagecolor="#ffffff"
     bordercolor="#666666"
     borderopacity="1.0"
     inkscape:pageopacity="0.0"
     inkscape:pageshadow="2"
     inkscape:zoom="0.24748737"
     inkscape:cx="181.98869"
     inkscape:cy="-142.61506"
     inkscape:document-units="px"
     inkscape:current-layer="layer1"
     showgrid="false"
     inkscape:window-width="1600"
     inkscape:window-height="813"
     inkscape:window-x="0"
     inkscape:window-y="27"
     inkscape:window-maximized="1"
     inkscape:snap-grids="true"
     inkscape:snap-to-guides="false"
     width="744.09px"
     fit-margin-top="0"
     fit-margin-left="0"
     fit-margin-right="0"
     fit-margin-bottom="0" />
  <metadata
     id="metadata7">
    <rdf:RDF>
      <cc:Work
         rdf:about="">
        <dc:format>image/svg+xml</dc:format>
        <dc:type
           rdf:resource="http://purl.org/dc/dcmitype/StillImage" />
        <dc:title></dc:title>
      </cc:Work>
    </rdf:RDF>
  </metadata>
  <g
     inkscape:label="Camada 1"
     inkscape:groupmode="layer"
     id="layer1"
     transform="translate(-251.27797,-416.72621)">
    <path
       sodipodi:type="arc"
       style="fill:#ffffff;fill-opacity:1;stroke:#000000;stroke-opacity:1"
       id="path5787"
       sodipodi:cx="385.87827"
       sodipodi:cy="559.40771"
       sodipodi:rx="220.21326"
       sodipodi:ry="220.21326"
       d="m 606.09152,559.40771 a 220.21326,220.21326 0 1 1 -440.42651,0 220.21326,220.21326 0 1 1 440.42651,0 z"
       transform="matrix(0.5,0,0,0.5,168.69547,247.37898)" />
    <path
       style="fill:none;stroke:#000000;stroke-width:0.5px;stroke-linecap:butt;stroke-linejoin:miter;stroke-opacity:1"
       d="m 362.13968,416.97622 c 0,219.70818 0,220.21326 0,220.21326"
       id="path5826"
       inkscape:connector-curvature="0" />
    <path
       style="fill:none;stroke:#000000;stroke-width:0.5px;stroke-linecap:butt;stroke-linejoin:miter;stroke-opacity:1"
       d="m 251.52798,525.06255 c 219.70818,0 220.21326,0 220.21326,0"
       id="path5828"
       inkscape:connector-curvature="0" />
    <path
       style="fill:none;stroke:#000000;stroke-width:0.5px;stroke-linecap:butt;stroke-linejoin:miter;stroke-opacity:1"
       d="m 271.53159,463.65108 c 90.71428,0 90.53571,0 90.53571,0 l 89.46429,0"
       id="path6062"
       inkscape:connector-curvature="0" />
    <path
       style="fill:none;stroke:#000000;stroke-width:0.5px;stroke-linecap:butt;stroke-linejoin:miter;stroke-opacity:1"
       d="m 451.35302,463.47251 0,61.60715"
       id="path6064"
       inkscape:connector-curvature="0" />
    <path
       style="fill:none;stroke:#000000;stroke-width:0.5px;stroke-linecap:butt;stroke-linejoin:miter;stroke-opacity:1"
       d="m 271.73103,463.56951 0,61.49304"
       id="path6068"
       inkscape:connector-curvature="0" />
    <path
       style="fill:none;stroke:#000000;stroke-width:0.5px;stroke-linecap:butt;stroke-linejoin:miter;stroke-opacity:1"
       d="m 271.73103,524.93628 0,65.78618"
       id="path6070"
       inkscape:connector-curvature="0" />
    <path
       style="fill:none;stroke:#000000;stroke-width:0.5px;stroke-linecap:butt;stroke-linejoin:miter;stroke-opacity:1"
       d="m 451.28565,524.93628 0,65.78618"
       id="path6072"
       inkscape:connector-curvature="0" />
    <path
       style="fill:none;stroke:#000000;stroke-width:0.5px;stroke-linecap:butt;stroke-linejoin:miter;stroke-opacity:1"
       d="m 271.71016,590.25823 90.35714,0"
       id="path6074"
       inkscape:connector-curvature="0" />
    <path
       style="fill:none;stroke:#000000;stroke-width:0.5px;stroke-linecap:butt;stroke-linejoin:miter;stroke-opacity:1"
       d="m 361.88873,590.25823 89.28572,0"
       id="path6078"
       inkscape:connector-curvature="0" />
    <path
       style="fill:none;stroke:#000000;stroke-width:0.5px;stroke-linecap:butt;stroke-linejoin:miter;stroke-opacity:1"
       d="m 316.17774,426.82521 0,98.23734"
       id="path6080"
       inkscape:connector-curvature="0" />
    <path
       style="fill:none;stroke:#000000;stroke-width:0.5px;stroke-linecap:butt;stroke-linejoin:miter;stroke-opacity:1"
       d="m 315.99587,426.86537 90.89286,0 0,36.60714 0.17857,0 0,0"
       id="path6082"
       inkscape:connector-curvature="0" />
    <path
       style="fill:none;stroke:#000000;stroke-width:0.5px;stroke-linecap:butt;stroke-linejoin:miter;stroke-opacity:1"
       d="m 406.88873,463.65108 0,61.25 0,65.35715"
       id="path6084"
       inkscape:connector-curvature="0" />
    <path
       style="fill:none;stroke:#000000;stroke-width:0.5px;stroke-linecap:butt;stroke-linejoin:miter;stroke-opacity:1"
       d="m 406.88873,590.07966 0,37.32142 -90.71428,0 0,-102.5"
       id="path6098"
       inkscape:connector-curvature="0" />
    <path
       style="fill:#000000;fill-opacity:1;stroke:#000000;stroke-width:0.71428573;stroke-opacity:1"
       d="m 272.09329,494.30714 0,-30 21.78571,0 21.78572,0 0,30 0,30 -21.78572,0 -21.78571,0 0,-30 z"
       id="path6303"
       inkscape:connector-curvature="0" />
    <path
       style="fill:#000000;fill-opacity:1;stroke:#000000;stroke-width:0.71428573;stroke-opacity:1"
       d="m 317.09329,557.52143 0,-31.78572 22.14286,0 22.14285,0 0,31.78572 0,31.78571 -22.14285,0 -22.14286,0 0,-31.78571 z"
       id="path6305"
       inkscape:connector-curvature="0" />
    <path
       style="fill:#000000;fill-opacity:1;stroke:#000000;stroke-width:0.71428573;stroke-opacity:1"
       d="m 362.80757,608.59286 0,-17.85714 21.78572,0 21.78571,0 0,17.85714 0,17.85714 -21.78571,0 -21.78572,0 0,-17.85714 z"
       id="path6307"
       inkscape:connector-curvature="0" />
    <path
       style="fill:#000000;fill-opacity:1;stroke:#000000;stroke-width:0.71428573;stroke-opacity:1"
       d="m 362.80757,494.30714 0,-30 21.78572,0 21.78571,0 0,30 0,30 -21.78571,0 -21.78572,0 0,-30 z"
       id="path6309"
       inkscape:connector-curvature="0" />
    <path
       style="fill:#000000;fill-opacity:1;stroke:#000000;stroke-width:0.71428573;stroke-opacity:1"
       d="m 317.09329,445.02143 0,-17.85714 22.14286,0 22.14285,0 0,17.85714 0,17.85714 -22.14285,0 -22.14286,0 0,-17.85714 z"
       id="path6311"
       inkscape:connector-curvature="0" />
    <path
       style="fill:#000000;fill-opacity:1;stroke:#000000;stroke-width:0.71428573;stroke-opacity:1"
       d="m 407.80757,557.52143 0,-31.78572 21.42858,0 21.42857,0 0,31.78572 0,31.78571 -21.42857,0 -21.42858,0 0,-31.78571 z"
       id="path6313"
       inkscape:connector-curvature="0" />
    <path
       style="fill:#000000;fill-opacity:1;stroke:#000000;stroke-width:0.71428573;stroke-opacity:1"
       d="m 345.8623,635.3359 c -6.63615,-0.96761 -19.13618,-4.28568 -23.76901,-6.30937 -2.31831,-1.01267 -0.98156,-1.09407 18.39286,-1.12 l 20.89285,-0.0279 0,4.28572 0,4.28571 -4.46428,-0.0768 c -2.45536,-0.0422 -7.42895,-0.50902 -11.05242,-1.03735 z"
       id="path6315"
       inkscape:connector-curvature="0" />
    <path
       style="fill:#000000;fill-opacity:1;stroke:#000000;stroke-width:0.71428573;stroke-opacity:1"
       d="m 308.84903,622.7997 c -12.98598,-7.40832 -24.94085,-17.52941 -32.85696,-27.81699 l -3.26799,-4.24699 21.47032,0 21.47032,0 0,17.85714 c 0,9.82143 -0.0938,17.85714 -0.20855,17.85714 -0.1147,0 -3.08791,-1.64264 -6.60714,-3.6503 z"
       id="path6317"
       inkscape:connector-curvature="0" />
    <path
       style="fill:#000000;fill-opacity:1;stroke:#000000;stroke-width:0.71428573;stroke-opacity:1"
       d="m 268.13456,583.79397 c -6.33538,-10.7545 -11.34339,-23.349 -13.49863,-33.94733 -1.19805,-5.89142 -2.50979,-17.00237 -2.53026,-21.43235 l -0.0124,-2.67858 9.64286,0 9.64285,0 0,31.42858 c 0,17.28571 -0.0939,31.42857 -0.20873,31.42857 -0.1148,0 -1.48087,-2.1595 -3.03571,-4.79889 z"
       id="path6319"
       inkscape:connector-curvature="0" />
    <path
       style="fill:#000000;fill-opacity:1;stroke:#000000;stroke-width:0.71428573;stroke-opacity:1"
       d="m 452.09513,494.84286 0.002,-29.46429 2.55872,4.24345 c 9.23936,15.32276 14.84661,32.37156 15.81258,48.07798 l 0.40634,6.60714 -9.39066,0 -9.39066,0 0.002,-29.46428 z"
       id="path6321"
       inkscape:connector-curvature="0" />
    <path
       style="fill:#000000;fill-opacity:1;stroke:#000000;stroke-width:0.71428573;stroke-opacity:1"
       d="m 407.80757,445.36654 0,-17.51203 3.75,1.89175 c 12.78326,6.44874 29.46655,20.39983 36.84493,30.81088 l 1.64521,2.32143 -21.12007,0 -21.12007,0 0,-17.51203 z"
       id="path6323"
       inkscape:connector-curvature="0" />
    <path
       style="fill:#000000;fill-opacity:1;stroke:#000000;stroke-width:1.01015258;stroke-opacity:1"
       d="m 362.80787,422.10584 0,-4.19187 8.83884,0.63351 c 8.76252,0.62805 21.79659,3.52354 27.89419,6.19663 2.83159,1.24132 1.04949,1.39755 -16.78251,1.4712 l -19.95052,0.0824 0,-4.19187 z"
       id="path6352"
       inkscape:connector-curvature="0" />
    <path
       style="fill:#000000;fill-opacity:1;stroke:#000000;stroke-width:0.17857143;stroke-opacity:1"
       d="m 400.47451,426.25316 c 0.64221,-0.18581 0.88457,-0.68451 0.59532,-1.22499 -0.10711,-0.20013 -0.15864,-0.36388 -0.1145,-0.36388 0.17384,0 3.3525,1.25345 3.81524,1.50448 0.45458,0.24659 0.28799,0.26625 -2.18649,0.25798 -1.93932,-0.007 -2.52153,-0.0544 -2.10957,-0.17359 z"
       id="path6354"
       inkscape:connector-curvature="0" />
    <path
       style="fill:#000000;fill-opacity:1;stroke:#000000;stroke-width:0.35714287;stroke-opacity:1"
       d=""
       id="path6358"
       inkscape:connector-curvature="0" />
    <path
       style="fill:#000000;fill-opacity:1;stroke:#000000;stroke-width:0.06313454;stroke-opacity:1"
       d="m 400.50039,424.62504 c -0.56084,-0.36509 -3.10665,-1.34423 -5.24352,-2.01671 -5.84808,-1.84038 -14.28405,-3.60017 -20.76791,-4.33231 -1.2902,-0.14569 -3.82817,-0.34486 -8.4916,-0.66642 -1.84037,-0.12689 -3.40295,-0.2548 -3.4724,-0.28423 -0.28304,-0.11996 2.95305,-0.034 6.06092,0.16113 10.12852,0.63568 19.99082,2.63446 29.51539,5.98182 1.0036,0.35271 2.71873,0.98586 2.75964,1.01873 0.0298,0.024 -0.0626,0.28899 -0.0996,0.28555 -0.022,-0.002 -0.13943,-0.0684 -0.26096,-0.14756 z"
       id="path6360"
       inkscape:connector-curvature="0" />
    <path
       style="fill:#000000;fill-opacity:1;stroke:#000000;stroke-width:0.06313454;stroke-opacity:1"
       d="m 394.26183,426.63755 c 0.0417,-0.0417 11.80589,-0.0399 11.84759,0.002 0.017,0.0171 -2.64908,0.031 -5.92471,0.031 -3.27563,0 -5.94093,-0.0147 -5.92288,-0.0328 z"
       id="path6362"
       inkscape:connector-curvature="0" />
    <path
       style="fill:#000000;fill-opacity:1;stroke:#000000;stroke-width:0.06313454;stroke-opacity:1"
       d="m 404.90402,426.49953 c 0.0781,-0.015 0.14249,-0.0467 0.14302,-0.0703 5e-4,-0.0237 0.0239,-0.0791 0.0519,-0.12326 0.0396,-0.0623 0.12755,-0.0455 0.39362,0.0753 l 0.34267,0.15557 -0.53665,-0.005 c -0.29515,-0.002 -0.47272,-0.0172 -0.39459,-0.0323 z"
       id="path6364"
       inkscape:connector-curvature="0" />
    <path
       style="fill:#000000;fill-opacity:1;stroke:#000000;stroke-width:0.02232143;stroke-opacity:1"
       d="m 396.59698,426.56204 c 0.043,-0.003 0.34933,-0.017 0.6808,-0.0309 1.12376,-0.0471 2.26711,-0.14486 2.72322,-0.23289 0.23155,-0.0447 0.22111,-0.0464 0.2524,0.0402 0.0359,0.0994 0.1143,0.12128 0.53289,0.1491 0.48521,0.0322 3.16271,0.0519 3.62319,0.0265 0.31279,-0.0172 0.39729,-0.0157 0.42411,0.008 0.0184,0.0159 0.0737,0.033 0.12276,0.0379 0.0491,0.005 -1.82924,0.009 -4.1741,0.009 -2.34487,-1.9e-4 -4.22824,-0.003 -4.18527,-0.006 z"
       id="path6366"
       inkscape:connector-curvature="0" />
  </g>
</svg>
