<?xml version="1.0" encoding="UTF-8" standalone="no"?>
<!-- Created with Inkscape (http://www.inkscape.org/) -->

<svg
   xmlns:osb="http://www.openswatchbook.org/uri/2009/osb"
   xmlns:dc="http://purl.org/dc/elements/1.1/"
   xmlns:cc="http://creativecommons.org/ns#"
   xmlns:rdf="http://www.w3.org/1999/02/22-rdf-syntax-ns#"
   xmlns:svg="http://www.w3.org/2000/svg"
   xmlns="http://www.w3.org/2000/svg"
   xmlns:xlink="http://www.w3.org/1999/xlink"
   xmlns:sodipodi="http://sodipodi.sourceforge.net/DTD/sodipodi-0.dtd"
   xmlns:inkscape="http://www.inkscape.org/namespaces/inkscape"
   width="441.42651"
   height="441.42651"
   id="svg2"
   version="1.1"
   inkscape:version="0.48.3.1 r9886"
   sodipodi:docname="jogador12.svg">
  <defs
     id="defs4">
    <linearGradient
       id="linearGradient5229"
       osb:paint="solid">
      <stop
         style="stop-color:#000000;stop-opacity:1;"
         offset="0"
         id="stop5231" />
    </linearGradient>
    <linearGradient
       inkscape:collect="always"
       xlink:href="#linearGradient5229"
       id="linearGradient5233"
       x1="96.474648"
       y1="130.09291"
       x2="242.93661"
       y2="130.09291"
       gradientUnits="userSpaceOnUse" />
  </defs>
  <sodipodi:namedview
     id="base"
     pagecolor="#ffffff"
     bordercolor="#666666"
     borderopacity="1.0"
     inkscape:pageopacity="0.0"
     inkscape:pageshadow="2"
     inkscape:zoom="0.49497474"
     inkscape:cx="210.23119"
     inkscape:cy="192.23268"
     inkscape:document-units="px"
     inkscape:current-layer="layer1"
     showgrid="false"
     inkscape:window-width="1600"
     inkscape:window-height="813"
     inkscape:window-x="0"
     inkscape:window-y="27"
     inkscape:window-maximized="1"
     inkscape:snap-grids="false"
     fit-margin-top="0"
     fit-margin-left="0"
     fit-margin-right="0"
     fit-margin-bottom="0" />
  <metadata
     id="metadata7">
    <rdf:RDF>
      <cc:Work
         rdf:about="">
        <dc:format>image/svg+xml</dc:format>
        <dc:type
           rdf:resource="http://purl.org/dc/dcmitype/StillImage" />
        <dc:title></dc:title>
      </cc:Work>
    </rdf:RDF>
  </metadata>
  <g
     inkscape:label="Camada 1"
     inkscape:groupmode="layer"
     id="layer1"
     transform="translate(-140.92135,-306.36958)">
    <path
       sodipodi:type="arc"
       style="fill:#ffffff;fill-opacity:1;stroke:#000000;stroke-opacity:1"
       id="path5787"
       sodipodi:cx="385.87827"
       sodipodi:cy="559.40771"
       sodipodi:rx="220.21326"
       sodipodi:ry="220.21326"
       d="m 606.09152,559.40771 c 0,121.62043 -98.59283,220.21326 -220.21325,220.21326 -121.62043,0 -220.21326,-98.59283 -220.21326,-220.21326 0,-121.62042 98.59283,-220.21325 220.21326,-220.21325 121.62042,0 220.21325,98.59283 220.21325,220.21325 z"
       transform="translate(-24.243661,-32.324881)" />
    <path
       style="fill:none;stroke:#000000;stroke-width:1px;stroke-linecap:butt;stroke-linejoin:miter;stroke-opacity:1"
       d="m 181.42857,400.21932 c 181.42857,0 181.07143,0 181.07143,0 l 178.92857,0"
       id="path6062"
       inkscape:connector-curvature="0" />
    <path
       style="fill:none;stroke:#000000;stroke-width:1px;stroke-linecap:butt;stroke-linejoin:miter;stroke-opacity:1"
       d="m 452.14286,400.21932 0,122.5 0,130.71429"
       id="path6084"
       inkscape:connector-curvature="0" />
    <path
       style="fill:none;stroke:#000000;stroke-width:1px;stroke-linecap:butt;stroke-linejoin:miter;stroke-opacity:1"
       d="m 270.72089,522.15836 0,11.49048"
       id="path7174"
       inkscape:connector-curvature="0" />
    <path
       style="fill:none;stroke:#000000;stroke-width:1px;stroke-linecap:butt;stroke-linejoin:miter;stroke-opacity:1"
       d="m 270.72089,532.89123 0,57.32616"
       id="path7176"
       inkscape:connector-curvature="0" />
    <path
       style="fill:none;stroke:#000000;stroke-width:1px;stroke-linecap:butt;stroke-linejoin:miter;stroke-opacity:1"
       d="m 270.72089,589.83858 0,26.1377"
       id="path7182"
       inkscape:connector-curvature="0" />
    <path
       style="fill:none;stroke:#000000;stroke-width:1px;stroke-linecap:butt;stroke-linejoin:miter;stroke-opacity:1"
       d="m 270.72089,615.34493 0,53.28555"
       id="path7184"
       inkscape:connector-curvature="0" />
    <path
       style="fill:none;stroke:#000000;stroke-width:1px;stroke-linecap:butt;stroke-linejoin:miter;stroke-opacity:1"
       d="m 270.72089,668.1254 0,59.47273"
       id="path7188"
       inkscape:connector-curvature="0" />
    <path
       style="fill:none;stroke:#000000;stroke-width:1px;stroke-linecap:butt;stroke-linejoin:miter;stroke-opacity:1"
       d="m 452.04327,652.97311 0,74.75129"
       id="path7194"
       inkscape:connector-curvature="0" />
    <path
       style="fill:none;stroke:#000000;stroke-width:1px;stroke-linecap:butt;stroke-linejoin:miter;stroke-opacity:1"
       d="m 270.72089,522.91597 0,-122.8598"
       id="path7220"
       inkscape:connector-curvature="0" />
    <path
       style="fill:none;stroke:#000000;stroke-width:1px;stroke-linecap:butt;stroke-linejoin:miter;stroke-opacity:1"
       d="m 270.71429,400.21931 0,-73.92857"
       id="path7268"
       inkscape:connector-curvature="0" />
    <path
       style="fill:none;stroke:#000000;stroke-width:1px;stroke-linecap:butt;stroke-linejoin:miter;stroke-opacity:1"
       d="m 452.14286,400.04074 0,-39.46428"
       id="path7276"
       inkscape:connector-curvature="0" />
    <path
       style="fill:none;stroke:#000000;stroke-width:1px;stroke-linecap:butt;stroke-linejoin:miter;stroke-opacity:1"
       d="m 452.14286,360.75503 0,-34.46429"
       id="path7282"
       inkscape:connector-curvature="0" />
    <path
       style="fill:#ffff00;fill-opacity:1;stroke:#000000;stroke-width:1.01015258;stroke-opacity:1"
       d="M 259.10671,720.66196 C 227.65757,703.9666 199.41702,678.37319 179.30902,648.34414 131.07951,576.31879 130.29815,482.00026 177.32374,408.70076 l 4.69849,-7.32361 43.94826,0 43.94826,0 0,162.12949 c 0,89.17122 -0.34093,162.12076 -0.75762,162.1101 -0.41668,-0.0107 -4.94118,-2.24031 -10.05442,-4.95478 z"
       id="path7284"
       inkscape:connector-curvature="0" />
    <path
       style="fill:#008000;fill-opacity:1;stroke:#000000;stroke-width:1.01015258;stroke-opacity:1"
       d="m 332.54821,744.29963 c -17.97151,-2.49329 -34.24247,-6.75162 -51.26525,-13.4168 l -9.34391,-3.65856 0,-162.92356 0,-162.92356 89.3985,0 89.39851,0 0,163.06304 0,163.06304 -10.35407,4.04204 c -13.97316,5.45486 -31.14628,9.91282 -47.39615,12.30353 -15.91962,2.34212 -45.2294,2.56076 -60.43763,0.45083 l 0,0 z"
       id="path7286"
       inkscape:connector-curvature="0" />
    <path
       style="fill:#000000;fill-opacity:1;stroke:#000000;stroke-width:1.01015258;stroke-opacity:1"
       d="m 271.93905,363.13155 0,-36.2253 5.80838,-2.26822 c 30.0939,-11.7519 53.24348,-16.30881 83.08505,-16.35498 18.48115,-0.0286 27.77532,0.85884 45.45686,4.34036 10.81735,2.12995 29.69007,7.90311 39.17665,11.98412 l 5.27007,2.26712 0,36.2411 0,36.2411 -89.39851,0 -89.3985,0 0,-36.2253 z"
       id="path7288"
       inkscape:connector-curvature="0" />
    <path
       style="fill:#ffff00;fill-opacity:1;stroke:#000000;stroke-width:1.01015258;stroke-opacity:1"
       d="m 452.75636,563.50664 0,-162.12949 44.19418,0.0131 44.19417,0.0131 4.75949,7.3168 c 25.36158,38.98858 38.28629,90.22139 34.20676,135.59369 -6.8086,75.72509 -49.54979,140.52974 -116.59278,176.77924 -4.62137,2.49873 -8.93334,4.54315 -9.58216,4.54315 -0.89454,0 -1.17966,-39.18534 -1.17966,-162.12949 z"
       id="path7290"
       inkscape:connector-curvature="0" />
    <path
       style="fill:#f4d7d7;fill-opacity:1;stroke:#000000;stroke-width:1.01015258;stroke-opacity:1"
       d="m 184.05578,398.91795 c 0,-1.41318 13.86123,-17.48643 22.71669,-26.34189 16.6357,-16.6357 32.14177,-28.22971 51.35579,-38.39913 5.74738,-3.04192 10.75144,-5.53076 11.12013,-5.53076 0.3687,0 0.67036,15.9099 0.67036,35.35534 l 0,35.35534 -42.93149,0 c -23.61231,0 -42.93148,-0.19751 -42.93148,-0.4389 z"
       id="path7292"
       inkscape:connector-curvature="0" />
    <path
       style="fill:#f4d7d7;fill-opacity:1;stroke:#000000;stroke-width:1.01015258;stroke-opacity:1"
       d="m 452.75636,363.40896 0,-35.9479 10.58216,5.60083 c 27.30676,14.45267 53.05797,36.11146 71.91547,60.48658 l 4.49357,5.80838 -43.4956,0 -43.4956,0 0,-35.94789 z"
       id="path7294"
       inkscape:connector-curvature="0" />
    <path
       sodipodi:type="arc"
       style="fill:#f4d7d7;fill-opacity:1;stroke:#000000;stroke-opacity:1"
       id="path7315"
       sodipodi:cx="65.65992"
       sodipodi:cy="328.08279"
       sodipodi:rx="63.63961"
       sodipodi:ry="63.63961"
       d="m 129.29953,328.08279 c 0,35.14719 -28.49242,63.63961 -63.63961,63.63961 -35.147187,0 -63.6396106,-28.49242 -63.6396106,-63.63961 0,-35.14718 28.4924236,-63.63961 63.6396106,-63.63961 35.14719,0 63.63961,28.49243 63.63961,63.63961 z"
       transform="matrix(1.7279307,0,0,1.7581845,247.43314,10.655547)" />
    <path
       style="fill:none;stroke:#000000;stroke-width:1px;stroke-linecap:butt;stroke-linejoin:miter;stroke-opacity:1"
       d="m 270.72089,522.7897 180.05969,0"
       id="path7317"
       inkscape:connector-curvature="0" />
    <path
       style="fill:#000000;fill-opacity:1;stroke:#000000;stroke-width:1.01015258;stroke-opacity:1"
       d="m 343.24654,696.4501 c -34.23192,-6.03077 -63.63763,-28.1932 -79.03832,-59.56941 -12.48159,-25.42906 -15.07528,-53.56632 -7.38571,-80.12288 3.02547,-10.44869 5.13699,-15.41373 10.71086,-25.18553 l 4.17741,-7.3236 89.10029,0 89.10029,0 3.63555,6.10301 c 5.35168,8.98391 9.57291,19.14385 12.51704,30.12687 2.28878,8.5382 2.61583,11.77671 2.66611,26.39958 0.048,13.95466 -0.30399,18.09914 -2.1624,25.46331 -4.76299,18.87381 -12.23067,33.55041 -24.38618,47.9274 -13.28739,15.71574 -34.74925,29.0416 -55.16853,34.25462 -12.85613,3.28217 -31.43087,4.09983 -43.76641,1.92663 l 0,0 z"
       id="path7323"
       inkscape:connector-curvature="0" />
  </g>
</svg>
